<svg xmlns="http://www.w3.org/2000/svg" viewBox="0 0 21.38 16.5"><defs><style>.cls-1{fill:#460e87;}</style></defs><g id="Слой_2" data-name="Слой 2"><g id="Слой_1-2" data-name="Слой 1"><polygon class="cls-1" points="11.5 9.53 19.43 9.53 18.26 10.68 18.98 11.39 21.38 9.03 18.98 6.68 18.26 7.39 19.43 8.53 11.5 8.53 11.5 9.53"/><path class="cls-1" d="M12,3.5V.5a.45.45,0,0,1,.15-.35.48.48,0,0,1,.7,0A.45.45,0,0,1,13,.5v3a.5.5,0,0,1-1,0Z"/><path class="cls-1" d="M3,3.5V.5A.45.45,0,0,1,3.15.15a.48.48,0,0,1,.7,0A.45.45,0,0,1,4,.5v3a.51.51,0,0,1-.5.5A.51.51,0,0,1,3,3.5Z"/><path class="cls-1" d="M5,9a1,1,0,1,1-.29-.71A1,1,0,0,1,5,9Z"/><path class="cls-1" d="M5,13a1,1,0,1,1-.29-.71A1,1,0,0,1,5,13Z"/><path class="cls-1" d="M9,9a1,1,0,1,1-.29-.71A1,1,0,0,1,9,9Z"/><path class="cls-1" d="M9,13a1,1,0,1,1-.29-.71A1,1,0,0,1,9,13Z"/><path class="cls-1" d="M13,13a1,1,0,1,1-.29-.71A1,1,0,0,1,13,13Z"/><path class="cls-1" d="M.5,1.5h15a.45.45,0,0,1,.35.15A.45.45,0,0,1,16,2a.45.45,0,0,1-.15.35.45.45,0,0,1-.35.15H.5a.45.45,0,0,1-.35-.15A.45.45,0,0,1,0,2a.45.45,0,0,1,.15-.35A.45.45,0,0,1,.5,1.5Z"/><path class="cls-1" d="M.5,5.5h15a.5.5,0,0,1,.35.85.45.45,0,0,1-.35.15H.5a.45.45,0,0,1-.35-.15.48.48,0,0,1,0-.7A.45.45,0,0,1,.5,5.5Z"/><rect class="cls-1" y="2" width="1" height="14"/><rect class="cls-1" x="15" y="2" width="1" height="14"/><path class="cls-1" d="M.5,15.5h15a.5.5,0,0,1,0,1H.5a.45.45,0,0,1-.35-.15.48.48,0,0,1,0-.7A.45.45,0,0,1,.5,15.5Z"/></g></g></svg>