<svg xmlns="http://www.w3.org/2000/svg" viewBox="0 0 18.97 18.5"><defs><style>.cls-1,.cls-2{fill:none;stroke:#000;}.cls-2{stroke-width:0.5px;}</style></defs><g id="Слой_2" data-name="Слой 2"><g id="Слой_1-2" data-name="Слой 1"><path d="M6.19,10.39a1,1,0,0,1-.29.71,1,1,0,0,1-.71.29,1,1,0,0,1-.71-1.7,1,1,0,0,1,.71-.3,1,1,0,0,1,1,1Z"/><path d="M6.19,14a1,1,0,0,1-1,1,1,1,0,0,1-.71-.29,1,1,0,0,1,0-1.42A1,1,0,0,1,5.19,13a1,1,0,0,1,1,1Z"/><path d="M10.49,10.39a.94.94,0,0,1-.3.71,1,1,0,0,1-1.7-.71.93.93,0,0,1,.29-.7,1,1,0,0,1,1.71.7Z"/><path d="M10.49,14a1,1,0,0,1-1,1,1,1,0,0,1-.71-.29,1,1,0,0,1,0-1.42,1,1,0,0,1,1.41,0A1,1,0,0,1,10.49,14Z"/><path d="M14.78,10.39a1,1,0,0,1-.29.71,1,1,0,0,1-.71.29,1,1,0,0,1-.71-1.7,1,1,0,0,1,.71-.3,1,1,0,0,1,1,1Z"/><path d="M14.78,14a1,1,0,0,1-1,1,1,1,0,0,1-.71-.29,1,1,0,0,1,0-1.42,1,1,0,0,1,.71-.29,1,1,0,0,1,1,1Z"/><path class="cls-1" d="M.5,15.5V4A2.45,2.45,0,0,1,.69,3a2.73,2.73,0,0,1,.54-.81A2.73,2.73,0,0,1,2,1.69,2.45,2.45,0,0,1,3,1.5H16a2.45,2.45,0,0,1,1,.19,2.5,2.5,0,0,1,.81.54,2.4,2.4,0,0,1,.54.81,2.45,2.45,0,0,1,.19,1V15.5a2.45,2.45,0,0,1-.19,1,2.4,2.4,0,0,1-.54.81,2.5,2.5,0,0,1-.81.54A2.45,2.45,0,0,1,16,18H3a2.45,2.45,0,0,1-1-.19,2.73,2.73,0,0,1-.81-.54,2.73,2.73,0,0,1-.54-.81A2.45,2.45,0,0,1,.5,15.5Z"/><path class="cls-2" d="M4.05,3.5V.5A.22.22,0,0,1,4.3.25.22.22,0,0,1,4.55.5v3a.22.22,0,0,1-.25.25A.22.22,0,0,1,4.05,3.5Z"/><path class="cls-2" d="M1,6.38H18a.22.22,0,0,1,.25.25.22.22,0,0,1-.25.25H1a.22.22,0,0,1-.25-.25A.22.22,0,0,1,1,6.38Z"/><path class="cls-2" d="M14.42,3.5V.5a.22.22,0,0,1,.25-.25.22.22,0,0,1,.25.25v3a.22.22,0,0,1-.25.25A.22.22,0,0,1,14.42,3.5Z"/></g></g></svg>