<svg xmlns="http://www.w3.org/2000/svg" viewBox="0 0 15 14"><defs><style>.cls-1{fill:#fff;}</style></defs><g id="Слой_2" data-name="Слой 2"><g id="Слой_1-2" data-name="Слой 1"><path class="cls-1" d="M13.76,3.51a1.64,1.64,0,0,0-1-1.41,1.65,1.65,0,0,0-1.88.23,9.46,9.46,0,0,0-1,1A1.73,1.73,0,0,0,10,5.8a1.75,1.75,0,0,0,2.43,0c.3-.29.59-.58.88-.88A1.83,1.83,0,0,0,13.76,3.51ZM1.6,13.25,1.8,13l5-5c.2-.2.2-.2,0-.41-.45-.46-.91-.91-1.36-1.36a.19.19,0,0,0-.29,0,2.94,2.94,0,0,1-3.6-.52c-.49-.48-1-1-1.47-1.46C0,4.11,0,4,.1,3.92s.36-.35.53-.54.19-.1.3,0c.5.51,1,1,1.53,1.52a1.72,1.72,0,0,0,1.78.42l.16-.08L1.6,2.48l.89-.85,2.8,2.79a3.56,3.56,0,0,0,.13-.48,1.8,1.8,0,0,0-.55-1.61L3.47.94A2.09,2.09,0,0,1,3.28.73C3.53.49,3.76.25,4,0A.18.18,0,0,1,4.2,0C4.81.62,5.44,1.2,6,1.84A2.86,2.86,0,0,1,6.28,5a.31.31,0,0,0,.07.45Q7,6.15,7.7,6.84c.12.12.2.12.31,0s.39-.4.6-.59a.18.18,0,0,0,0-.26,3,3,0,0,1,.57-3.69c.28-.25.54-.54.82-.8A2.82,2.82,0,0,1,12.88.81a2.79,2.79,0,0,1,2,2.24,2.85,2.85,0,0,1-.78,2.64c-.28.3-.58.58-.87.87A2.94,2.94,0,0,1,9.73,7a.21.21,0,0,0-.31,0,7.93,7.93,0,0,1-.58.58c-.13.12-.12.19,0,.31l4,4c.37.37.74.75,1.12,1.11.14.13.13.22,0,.35a3.48,3.48,0,0,0-.47.47c-.14.15-.22.16-.38,0L8,8.83c-.16-.16-.24-.14-.38,0l-5,5c-.21.2-.21.2-.42,0Z"/></g></g></svg>