<svg xmlns="http://www.w3.org/2000/svg" viewBox="0 0 18 16.5"><defs><style>.cls-1{fill:#90a0c4;}</style></defs><g id="Слой_2" data-name="Слой 2"><g id="Слой_1-2" data-name="Слой 1"><path class="cls-1" d="M3.4,3.5V.5A.45.45,0,0,1,3.55.15a.48.48,0,0,1,.7,0A.45.45,0,0,1,4.4.5v3a.51.51,0,0,1-.5.5.51.51,0,0,1-.5-.5Z"/><path class="cls-1" d="M5.43,9a1,1,0,0,1-1,1,1,1,0,1,1,0-2,1,1,0,0,1,1,1Z"/><path class="cls-1" d="M5.43,13a1,1,0,0,1-1,1,1,1,0,1,1,0-2,1,1,0,0,1,1,1Z"/><path class="cls-1" d="M10,9a1,1,0,1,1-.29-.71A1,1,0,0,1,10,9Z"/><path class="cls-1" d="M10,13a1,1,0,1,1-.29-.71A1,1,0,0,1,10,13Z"/><path class="cls-1" d="M14.57,9a1,1,0,0,1-1,1,1,1,0,0,1,0-2,1,1,0,0,1,1,1Z"/><path class="cls-1" d="M14.57,13a1,1,0,0,1-1,1,1,1,0,0,1,0-2,1,1,0,0,1,1,1Z"/><path class="cls-1" d="M.5,1.5h17a.45.45,0,0,1,.35.15A.45.45,0,0,1,18,2a.45.45,0,0,1-.15.35.45.45,0,0,1-.35.15H.5a.45.45,0,0,1-.35-.15A.45.45,0,0,1,0,2a.45.45,0,0,1,.15-.35A.45.45,0,0,1,.5,1.5Z"/><path class="cls-1" d="M.5,5.5h17a.5.5,0,0,1,.35.85.45.45,0,0,1-.35.15H.5a.45.45,0,0,1-.35-.15.48.48,0,0,1,0-.7A.45.45,0,0,1,.5,5.5Z"/><rect class="cls-1" y="2" width="1" height="14"/><rect class="cls-1" x="17" y="2" width="1" height="14"/><path class="cls-1" d="M.5,15.5h17a.5.5,0,0,1,0,1H.5a.45.45,0,0,1-.35-.15.48.48,0,0,1,0-.7A.45.45,0,0,1,.5,15.5Z"/><path class="cls-1" d="M13.5,3.44V.56A.55.55,0,0,1,14.06,0a.54.54,0,0,1,.4.16.55.55,0,0,1,.16.4V3.44a.55.55,0,0,1-.16.4.54.54,0,0,1-.4.16.55.55,0,0,1-.56-.56Z"/></g></g></svg>