<svg version="1.1" xmlns="http://www.w3.org/2000/svg" xmlns:xlink="http://www.w3.org/1999/xlink" x="0px" y="0px" xml:space="preserve">

<symbol id="calendar" viewBox="0 0 512 512">
    <path d="m133.332031 320h-53.332031c-8.832031 0-16-7.167969-16-16v-53.332031c0-8.832031 7.167969-16 16-16h53.332031c8.832031 0 16 7.167969 16 16v53.332031c0 8.832031-7.167969 16-16 16zm-37.332031-32h21.332031v-21.332031h-21.332031zm0 0"/><path d="m133.332031 448h-53.332031c-8.832031 0-16-7.167969-16-16v-53.332031c0-8.832031 7.167969-16 16-16h53.332031c8.832031 0 16 7.167969 16 16v53.332031c0 8.832031-7.167969 16-16 16zm-37.332031-32h21.332031v-21.332031h-21.332031zm0 0"/><path d="m282.667969 320h-53.335938c-8.832031 0-16-7.167969-16-16v-53.332031c0-8.832031 7.167969-16 16-16h53.335938c8.832031 0 16 7.167969 16 16v53.332031c0 8.832031-7.167969 16-16 16zm-37.335938-32h21.335938v-21.332031h-21.335938zm0 0"/><path d="m282.667969 448h-53.335938c-8.832031 0-16-7.167969-16-16v-53.332031c0-8.832031 7.167969-16 16-16h53.335938c8.832031 0 16 7.167969 16 16v53.332031c0 8.832031-7.167969 16-16 16zm-37.335938-32h21.335938v-21.332031h-21.335938zm0 0"/><path d="m432 320h-53.332031c-8.832031 0-16-7.167969-16-16v-53.332031c0-8.832031 7.167969-16 16-16h53.332031c8.832031 0 16 7.167969 16 16v53.332031c0 8.832031-7.167969 16-16 16zm-37.332031-32h21.332031v-21.332031h-21.332031zm0 0"/><path d="m453.332031 512h-394.664062c-32.363281 0-58.667969-26.304688-58.667969-58.667969v-352c0-32.363281 26.304688-58.664062 58.667969-58.664062h394.664062c32.363281 0 58.667969 26.300781 58.667969 58.664062v352c0 32.363281-26.304688 58.667969-58.667969 58.667969zm-394.664062-437.332031c-14.699219 0-26.667969 11.964843-26.667969 26.664062v352c0 14.699219 11.96875 26.667969 26.667969 26.667969h394.664062c14.699219 0 26.667969-11.96875 26.667969-26.667969v-352c0-14.699219-11.96875-26.664062-26.667969-26.664062zm0 0"/><path d="m496 202.667969h-480c-8.832031 0-16-7.167969-16-16s7.167969-16 16-16h480c8.832031 0 16 7.167969 16 16s-7.167969 16-16 16zm0 0"/><path d="m122.667969 128c-8.832031 0-16-7.167969-16-16v-96c0-8.832031 7.167969-16 16-16s16 7.167969 16 16v96c0 8.832031-7.167969 16-16 16zm0 0"/><path d="m389.332031 128c-8.832031 0-16-7.167969-16-16v-96c0-8.832031 7.167969-16 16-16s16 7.167969 16 16v96c0 8.832031-7.167969 16-16 16zm0 0"/>
</symbol>

<symbol id="calendar-export" viewBox="0 0 512 512">
	<path d="m256 448c-8.832031 0-16-7.167969-16-16v-181.332031c0-8.832031 7.167969-16 16-16s16 7.167969 16 16v181.332031c0 8.832031-7.167969 16-16 16zm0 0"/><path d="m256 448c-4.097656 0-8.191406-1.558594-11.308594-4.691406l-80-80c-6.25-6.253906-6.25-16.386719 0-22.636719 6.253906-6.25 16.386719-6.25 22.636719 0l68.691406 68.695313 68.695313-68.695313c6.25-6.25 16.382812-6.25 22.632812 0 6.253906 6.25 6.253906 16.382813 0 22.636719l-80 80c-3.15625 3.132812-7.25 4.691406-11.347656 4.691406zm0 0"/><path d="m453.332031 512h-394.664062c-32.363281 0-58.667969-26.304688-58.667969-58.667969v-352c0-32.363281 26.304688-58.664062 58.667969-58.664062h394.664062c32.363281 0 58.667969 26.300781 58.667969 58.664062v352c0 32.363281-26.304688 58.667969-58.667969 58.667969zm-394.664062-437.332031c-14.699219 0-26.667969 11.964843-26.667969 26.664062v352c0 14.699219 11.96875 26.667969 26.667969 26.667969h394.664062c14.699219 0 26.667969-11.96875 26.667969-26.667969v-352c0-14.699219-11.96875-26.664062-26.667969-26.664062zm0 0"/><path d="m496 202.667969h-480c-8.832031 0-16-7.167969-16-16s7.167969-16 16-16h480c8.832031 0 16 7.167969 16 16s-7.167969 16-16 16zm0 0"/><path d="m122.667969 128c-8.832031 0-16-7.167969-16-16v-96c0-8.832031 7.167969-16 16-16s16 7.167969 16 16v96c0 8.832031-7.167969 16-16 16zm0 0"/><path d="m389.332031 128c-8.832031 0-16-7.167969-16-16v-96c0-8.832031 7.167969-16 16-16s16 7.167969 16 16v96c0 8.832031-7.167969 16-16 16zm0 0"/>
</symbol>

<symbol id="clock" viewBox="0 0 443.294 443.294">
	<path d="m221.647 0c-122.214 0-221.647 99.433-221.647 221.647s99.433 221.647 221.647 221.647 221.647-99.433 221.647-221.647-99.433-221.647-221.647-221.647zm0 415.588c-106.941 0-193.941-87-193.941-193.941s87-193.941 193.941-193.941 193.941 87 193.941 193.941-87 193.941-193.941 193.941z"/><path d="m235.5 83.118h-27.706v144.265l87.176 87.176 19.589-19.589-79.059-79.059z"/>
</symbol>

<symbol id="printer" viewBox="0 0 248.059 248.059">
	<path d="M230.559,62.498h-27.785V17.133c0-4.143-3.358-7.5-7.5-7.5H52.785c-4.142,0-7.5,3.357-7.5,7.5v45.365H17.5
		c-9.649,0-17.5,7.85-17.5,17.5v96.225c0,9.649,7.851,17.5,17.5,17.5h27.785v37.203c0,4.143,3.358,7.5,7.5,7.5h142.488
		c4.142,0,7.5-3.357,7.5-7.5v-37.203h27.785c9.649,0,17.5-7.851,17.5-17.5V79.998C248.059,70.349,240.208,62.498,230.559,62.498z
		 M60.285,24.633h127.488v37.865H60.285V24.633z M187.773,223.426H60.285v-74.404h127.488V223.426z M233.059,176.223
		c0,1.355-1.145,2.5-2.5,2.5h-27.785v-37.201c0-4.143-3.358-7.5-7.5-7.5H52.785c-4.142,0-7.5,3.357-7.5,7.5v37.201H17.5
		c-1.355,0-2.5-1.145-2.5-2.5V79.998c0-1.356,1.145-2.5,2.5-2.5h35.285h142.488h35.285c1.355,0,2.5,1.144,2.5,2.5V176.223z"/>
	<circle cx="195.273" cy="105.76" r="10.668"/>
	<path d="M158.151,163.822H89.907c-4.142,0-7.5,3.357-7.5,7.5c0,4.143,3.358,7.5,7.5,7.5h68.244c4.142,0,7.5-3.357,7.5-7.5
		C165.651,167.18,162.294,163.822,158.151,163.822z"/>
	<path d="M158.151,193.623H89.907c-4.142,0-7.5,3.357-7.5,7.5c0,4.143,3.358,7.5,7.5,7.5h68.244c4.142,0,7.5-3.357,7.5-7.5
		C165.651,196.98,162.294,193.623,158.151,193.623z"/>
</symbol>

<symbol id="menu" viewBox="0 -53 384 384">
	<path d="m368 154.667969h-352c-8.832031 0-16-7.167969-16-16s7.167969-16 16-16h352c8.832031 0 16 7.167969 16 16s-7.167969 16-16 16zm0 0"/><path d="m368 32h-352c-8.832031 0-16-7.167969-16-16s7.167969-16 16-16h352c8.832031 0 16 7.167969 16 16s-7.167969 16-16 16zm0 0"/><path d="m368 277.332031h-352c-8.832031 0-16-7.167969-16-16s7.167969-16 16-16h352c8.832031 0 16 7.167969 16 16s-7.167969 16-16 16zm0 0"/>
</symbol>

<symbol id="newspaper" viewBox="0 0 511.089 511.089">
	<g><path d="m461.719 377.714h.003c4.141 0 7.498-3.356 7.5-7.497l.131-337.485c0-18.048-14.684-32.732-32.732-32.732h-327.041c.012.018.027.037.04.055-7.826.412-15.248 3.653-21.013 9.311-6.407 6.287-10.082 15.01-10.082 23.934v103.01h-21.397c-8.487 0-15.393 6.905-15.393 15.392v308.261c0 13.818 5.426 26.764 15.279 36.454 9.642 9.482 22.337 14.673 35.837 14.672h.008.001 325.199c28.191 0 51.126-22.935 51.126-51.123l.022-57.786c.002-4.142-3.354-7.501-7.497-7.503-.001 0-.002 0-.003 0-4.141 0-7.498 3.356-7.5 7.497l-.022 57.789c0 19.92-16.206 36.126-36.126 36.126h-289.37c9.425-9.432 15.299-22.5 15.299-36.844v-426.513c0-6.508-1.95-12.604-5.289-17.732h297.922c9.777 0 17.732 7.955 17.732 17.729l-.131 337.482c-.002 4.143 3.355 7.502 7.497 7.503zm-332.731 81.531c0 19.986-15.928 36.512-35.505 36.838-9.771.15-18.99-3.517-25.95-10.362-6.963-6.847-10.797-15.995-10.797-25.759v-308.26c0-.216.176-.392.393-.392h21.396v287.133c0 9.511 7.737 17.248 17.248 17.248h33.216v3.554zm0-18.555h-33.216c-1.239 0-2.248-1.008-2.248-2.248v-405.142c0-4.922 2.036-9.743 5.587-13.227 3.342-3.279 7.651-5.073 12.167-5.073.107 0 .216.001.323.003 9.587.182 17.387 8.135 17.387 17.729z"/><path d="m436.864 61.852c0-8.83-7.184-16.013-16.013-16.013h-184.303c-4.143 0-7.5 3.358-7.5 7.5s3.357 7.5 7.5 7.5h184.303c.559 0 1.013.455 1.013 1.013v61.007c0 .559-.454 1.013-1.013 1.013h-243.156c-.559 0-1.014-.455-1.014-1.013v-61.007c0-.559.455-1.013 1.014-1.013h26.891c4.143 0 7.5-3.358 7.5-7.5s-3.357-7.5-7.5-7.5h-26.891c-8.83 0-16.014 7.184-16.014 16.013v61.007c0 8.83 7.184 16.013 16.014 16.013h243.156c8.829 0 16.013-7.184 16.013-16.013z"/><path d="m169.181 350.208c-4.143 0-7.5 3.358-7.5 7.5v23.234c0 7.032 5.722 12.753 12.754 12.753h124.227c7.031 0 12.752-5.721 12.752-12.753v-207.544c0-7.032-5.721-12.753-12.752-12.753h-124.227c-7.032 0-12.754 5.721-12.754 12.753v152.347c0 4.142 3.357 7.5 7.5 7.5s7.5-3.358 7.5-7.5v-150.1h119.732v203.05h-119.732v-20.987c0-4.142-3.357-7.5-7.5-7.5z"/><path d="m172.49 466.823h253.566c5.959 0 10.808-4.848 10.808-10.808v-27.903c0-5.959-4.849-10.808-10.808-10.808h-253.566c-5.959 0-10.808 4.849-10.808 10.808v27.903c0 5.96 4.849 10.808 10.808 10.808zm4.192-34.519h245.182v19.519h-245.182z"/><path d="m436.864 313.594c0-7.737-6.294-14.031-14.031-14.031h-80.573c-7.737 0-14.031 6.294-14.031 14.031v66.07c0 7.737 6.294 14.031 14.031 14.031h80.573c7.737 0 14.031-6.294 14.031-14.031zm-15 65.101h-78.636v-64.133h78.636z"/><path d="m429.364 160.646h-93.636c-4.143 0-7.5 3.358-7.5 7.5s3.357 7.5 7.5 7.5h93.636c4.143 0 7.5-3.358 7.5-7.5s-3.358-7.5-7.5-7.5z"/><path d="m429.364 194.441h-93.636c-4.143 0-7.5 3.358-7.5 7.5s3.357 7.5 7.5 7.5h93.636c4.143 0 7.5-3.358 7.5-7.5s-3.358-7.5-7.5-7.5z"/><path d="m429.364 228.237h-93.636c-4.143 0-7.5 3.358-7.5 7.5s3.357 7.5 7.5 7.5h93.636c4.143 0 7.5-3.358 7.5-7.5s-3.358-7.5-7.5-7.5z"/><path d="m429.364 262.033h-93.636c-4.143 0-7.5 3.358-7.5 7.5s3.357 7.5 7.5 7.5h93.636c4.143 0 7.5-3.358 7.5-7.5s-3.358-7.5-7.5-7.5z"/></g>
</symbol>

<symbol id="list" viewBox="0 0 512 512">
<g>
	<g>
		<path d="M251.328,196.704c-6.24-6.24-16.384-6.272-22.656-0.032L176,249.376l-20.672-20.704c-6.24-6.24-16.384-6.24-22.624,0
			s-6.24,16.384,0,22.624l32,32c3.104,3.136,7.2,4.704,11.296,4.704s8.192-1.568,11.328-4.672l64-64
			C257.568,213.088,257.568,202.944,251.328,196.704z"/>
	</g>
</g>
<g>
	<g>
		<path d="M251.328,324.704c-6.24-6.24-16.384-6.272-22.656-0.032L176,377.376l-20.672-20.672c-6.24-6.24-16.384-6.24-22.624,0
			s-6.24,16.384,0,22.624l32,32c3.104,3.104,7.2,4.672,11.296,4.672s8.192-1.568,11.328-4.672l64-64
			C257.568,341.088,257.568,330.944,251.328,324.704z"/>
	</g>
</g>
<g>
	<g>
		<path d="M368,224h-64c-8.832,0-16,7.168-16,16c0,8.832,7.168,16,16,16h64c8.832,0,16-7.168,16-16C384,231.168,376.832,224,368,224
			z"/>
	</g>
</g>
<g>
	<g>
		<path d="M368,352h-64c-8.832,0-16,7.168-16,16c0,8.832,7.168,16,16,16h64c8.832,0,16-7.168,16-16C384,359.168,376.832,352,368,352
			z"/>
	</g>
</g>
<g>
	<g>
		<path d="M416,64h-64V48c0-8.832-7.168-16-16-16h-34.72C294.656,13.376,276.864,0,256,0s-38.656,13.376-45.28,32H176
			c-8.832,0-16,7.168-16,16v16H96c-17.632,0-32,14.368-32,32v384c0,17.632,14.368,32,32,32h320c17.632,0,32-14.368,32-32V96
			C448,78.368,433.632,64,416,64z M192,64h32c8.832,0,16-7.168,16-16c0-8.832,7.168-16,16-16c8.832,0,16,7.168,16,16
			c0,8.832,7.168,16,16,16h32v32H192V64z M416,480H96V96h64v16c0,8.832,7.168,16,16,16h160c8.832,0,16-7.168,16-16V96h64V480z"/>
	</g>
</g>
</symbol>

<symbol id="folders" viewBox="0 0 512 512">
<path d="m512 30h-226.041c-13.697-18.204-35.475-30-59.959-30h-166v165h-60v347h452v-165h60zm-30 30v30h-181v-15c0-5.136-.521-10.152-1.509-15zm-60 422h-392v-287h136c24.813 0 45 20.187 45 45v45h211zm0-227h-181v-15c0-5.137-.519-10.151-1.507-15h182.507zm30 62v-122h-226.035c-13.697-18.207-35.479-30-59.965-30h-76v-135h136c24.813 0 45 20.187 45 45v45h211v197z"/>
</symbol>

<symbol id="online-learning" viewBox="0 0 512 512">
<path d="m497 15h-482c-8.284 0-15 6.716-15 15v310 60c0 8.284 6.716 15 15 15h151v52h-37c-8.284 0-15 6.716-15 15s6.716 15 15 15h254c8.284 0 15-6.716 15-15s-6.716-15-15-15h-37v-52h151c8.284 0 15-6.716 15-15v-60-310c0-8.284-6.716-15-15-15zm-301 452v-49h120v49zm286-422v280h-452v-280zm0 340h-452v-30h452z"/><path d="m121.52 154.576 42.397 16.64v79.784c0 24.813 20.187 45 45 45h94.166c24.813 0 45-20.187 45-45v-79.818l21.916-8.601v34.252c0 8.284 6.716 15 15 15s15-6.716 15-15v-56.221c0-6.655-4.338-12.289-10.336-14.251l-128.225-50.323c-3.521-1.382-7.437-1.383-10.96 0l-128.958 50.612c-5.743 2.253-9.52 7.794-9.52 13.963s3.777 11.709 9.52 13.963zm196.563 96.424c0 8.271-6.729 15-15 15h-94.166c-8.271 0-15-6.729-15-15v-68.01l56.561 22.199c1.761.691 3.621 1.037 5.48 1.037 1.86 0 3.719-.346 5.48-1.037l56.645-22.231zm-62.125-144.886 87.901 34.499-87.901 34.499-87.901-34.499z"/>
</symbol>

<symbol id="operator" viewBox="0 0 512 512">
	<path d="m511.996094 489.445312c-.003906-18.070312-10.75-34.320312-27.378906-41.394531l-127.546876-54.265625v-30.515625c11.777344-17.378906 19.183594-37.945312 20.652344-60.109375h15.324219c30.324219 0 55-24.675781 55-55v-44.511718c0-25.902344-18.007813-47.664063-42.152344-53.46875-1.09375-44.167969-11.085937-77.734376-30.453125-102.421876-24.863281-31.691406-65.046875-47.757812-119.441406-47.757812s-94.578125 16.066406-119.441406 47.761719c-19.371094 24.683593-29.359375 58.25-30.453125 102.417969-24.148438 5.804687-42.152344 27.566406-42.152344 53.46875v44.511718c0 30.324219 24.675781 55 55 55h15.324219c1.46875 22.164063 8.875 42.730469 20.652344 60.109375v30.515625l-127.546876 54.265625c-16.628906 7.074219-27.37890575 23.328125-27.37890575 41.398438l-.00390625 7.542969c0 3.980468 1.578125 7.796874 4.394531 10.609374 2.8125 2.8125 6.625 4.394532 10.605469 4.394532h482c3.980469 0 7.796875-1.582032 10.609375-4.394532 2.8125-2.816406 4.390625-6.632812 4.390625-10.609374zm-184.910156-85.136718c.011718.359375.851562 36.765625-20.652344 59.160156-11.808594 12.292969-28.777344 18.523438-50.433594 18.523438-21.578125 0-38.503906-6.1875-50.304688-18.390626-21.761718-22.511718-20.789062-58.976562-20.78125-59.292968.007813-.175782.011719-.351563.011719-.527344 0-.0625.003907-.125.003907-.191406v-9.476563c20.023437 14.40625 44.574218 22.898438 71.070312 22.898438s51.046875-8.496094 71.070312-22.898438v9.480469c0 .058594.003907.121094.003907.183594 0 .175781.003906.351562.011719.53125zm20.960937-209.214844c-.019531.300781-.046875.601562-.046875.910156v84.160156l-28.488281 18.996094c-9.0625 6.042969-19.613281 9.238282-30.511719 9.238282h-25.371094c-8.28125 0-15 6.714843-15 15 0 8.285156 6.71875 15 15 15h25.371094c16.839844 0 33.148438-4.9375 47.15625-14.28125l8.882812-5.921876c-10.300781 39.542969-46.316406 68.820313-89.039062 68.820313-50.730469 0-92-41.273437-92-92v-99.011719c0-.3125-.027344-.613281-.046875-.917968v-20.519532c.019531-.304687.046875-.605468.046875-.917968 0-25.804688 6.246094-42.851563 18.566406-50.660157 20.070313-12.726562 55.171875-1.023437 66.980469 4.550781 4.0625 1.9375 8.808594 1.933594 12.878906.011719 11.835938-5.582031 46.933594-17.285156 67.007813-4.5625 12.320312 7.808594 18.566406 24.855469 18.566406 50.660157 0 .308593.027344.609374.046875.910156zm70 8.554688v44.511718c0 13.785156-11.214844 25-25 25h-15v-94.511718h15c13.785156 0 25 11.214843 25 25zm-162.046875-173.648438c79.433594 0 116.738281 36.304688 119.789062 117.316406-4.195312-22.9375-14.363281-39.613281-30.394531-49.730468-31.035156-19.589844-73.347656-6.195313-89.394531.117187-16.046875-6.3125-58.359375-19.707031-89.394531-.117187-16.03125 10.117187-26.199219 26.792968-30.394531 49.730468 3.050781-81.011718 40.355468-117.316406 119.789062-117.316406zm-122.046875 243.160156h-15c-13.785156 0-25-11.214844-25-25v-44.511718c0-13.785157 11.214844-25 25-25h15zm-94.824219 202.496094 117.519532-50c2.632812 16.277344 9.171874 38.425781 25.203124 56.339844h-149.867187c1.589844-2.777344 4.066406-5.03125 7.144531-6.339844zm291.019532 6.339844c16.03125-17.914063 22.570312-40.0625 25.203124-56.339844l117.519532 50c3.078125 1.308594 5.550781 3.5625 7.144531 6.339844zm0 0"/>
</symbol>

<symbol id="settings" viewBox="0 0 512 512">
<g>
	<g>
		<g>
			<path d="M201.447,256c-35.285,0-64,28.715-64,64s28.715,64,64,64s64-28.715,64-64S236.733,256,201.447,256z M201.447,362.667
				c-23.531,0-42.667-19.136-42.667-42.667c0-23.531,19.136-42.667,42.667-42.667c23.531,0,42.667,19.136,42.667,42.667
				S224.978,362.667,201.447,362.667z"/>
			<path d="M381.074,359.275l-33.621-26.347c0.405-4.245,0.661-8.576,0.661-12.907c0-4.395-0.256-8.768-0.683-13.163l33.941-26.624
				c7.509-6.357,9.323-16.981,4.416-25.152l-36.352-62.827c-4.949-8.213-15.019-11.755-24.277-8.299l-39.531,15.893
				c-7.104-5.077-14.507-9.387-22.4-13.099l-5.995-42.56C255.485,134.976,247.101,128,237.693,128h-72.533
				c-9.472,0-17.877,7.125-19.648,16.939l-5.909,42.112c-7.957,3.776-15.445,8.149-22.379,13.056l-39.765-16
				c-8.96-3.349-19.072,0.149-24.107,8.533l-36.16,62.571c-4.992,8.299-3.179,18.944,4.629,25.536l33.621,26.347
				c-0.405,4.245-0.661,8.576-0.661,12.907c0,4.395,0.256,8.768,0.683,13.163l-33.963,26.603
				c-7.509,6.357-9.323,16.981-4.416,25.152l36.352,62.827c4.949,8.235,15.019,11.755,24.277,8.299l39.531-15.893
				c7.104,5.077,14.507,9.387,22.4,13.099l5.995,42.56c1.749,9.216,10.133,16.192,19.541,16.192h72.533
				c9.472,0,17.877-7.125,19.648-16.939l5.909-42.112c7.957-3.776,15.445-8.149,22.379-13.056l39.765,16
				c8.981,3.371,19.093-0.149,24.107-8.533l36.181-62.549C390.695,376.512,388.882,365.867,381.074,359.275z M331.773,435.435
				l-43.712-17.579c-3.52-1.451-7.531-0.853-10.539,1.472c-8.341,6.507-17.835,12.053-28.203,16.491
				c-3.413,1.472-5.845,4.629-6.357,8.32l-5.248,46.528h-71.275l-6.485-46.272c-0.533-3.712-2.965-6.891-6.443-8.341
				c-10.219-4.267-19.413-9.664-28.139-16.448c-2.987-2.325-7.019-2.901-10.539-1.472l-43.712,17.6l-34.923-60.352l37.12-29.099
				c2.965-2.325,4.48-6.037,4.011-9.771c-0.725-5.504-1.216-11.008-1.216-16.512c0-5.483,0.491-10.944,1.195-16.192
				c0.491-3.733-1.003-7.488-3.989-9.813l-37.12-29.099l34.923-60.352l43.712,17.579c3.477,1.429,7.531,0.853,10.539-1.472
				c8.341-6.507,17.835-12.053,28.203-16.491c3.413-1.472,5.824-4.608,6.357-8.299l5.227-46.528h71.296l6.485,46.272
				c0.533,3.712,2.965,6.891,6.443,8.341c10.219,4.267,19.413,9.664,28.139,16.448c3.029,2.347,7.061,2.923,10.539,1.472
				l43.712-17.621l34.923,60.352l-37.12,29.099c-2.965,2.325-4.48,6.037-4.011,9.771c0.725,5.504,1.216,11.008,1.216,16.512
				c0,5.483-0.491,10.944-1.195,16.192c-0.491,3.733,1.003,7.488,3.989,9.813l37.12,29.099L331.773,435.435z"/>
		</g>
	</g>
</g>
<g>
	<g>
		<g>
			<path d="M393.447,64c-23.531,0-42.667,19.136-42.667,42.667c0,23.531,19.136,42.667,42.667,42.667s42.667-19.136,42.667-42.667
				C436.114,83.136,416.978,64,393.447,64z M393.447,128c-11.755,0-21.333-9.579-21.333-21.333c0-11.755,9.579-21.333,21.333-21.333
				s21.333,9.579,21.333,21.333C414.781,118.421,405.202,128,393.447,128z"/>
			<path d="M492.306,124.032c-0.171-0.149-0.363-0.299-0.533-0.448l-15.851-12.288c0.128-1.515,0.192-3.051,0.192-4.629
				c0-1.6-0.043-3.157-0.128-4.736l16.149-12.672c5.504-4.907,6.912-12.8,3.285-19.435l-19.072-32.981
				c-3.563-6.549-11.435-9.536-19.307-6.891l-18.389,7.403c-2.667-1.771-5.333-3.328-8.043-4.672l-2.731-18.859
				C427.261,6.08,420.562,0,412.647,0h-38.4c-7.509,0-14.08,5.568-15.381,13.205l-2.816,19.648
				c-2.816,1.429-5.483,2.944-7.979,4.565l-18.773-7.552c-6.955-2.517-14.571,0.085-18.837,6.784L291.154,70.08
				c-3.691,6.741-2.133,14.784,3.925,19.648l15.808,12.373c-0.064,1.493-0.107,3.008-0.107,4.565c0,1.557,0.043,3.072,0.107,4.587
				l-16.299,12.779c-5.525,4.907-6.933,12.821-3.307,19.477l19.072,32.981c3.584,6.549,11.477,9.557,19.307,6.891l18.389-7.403
				c2.667,1.771,5.333,3.328,8.043,4.672l2.837,19.755c1.259,7.488,7.701,12.928,15.317,12.928h38.4
				c7.488,0,14.08-5.568,15.381-13.184l2.816-19.669c2.816-1.408,5.44-2.923,7.872-4.523l18.859,7.552
				c6.912,2.496,14.592-0.107,18.859-6.784l19.328-33.472C499.239,136.832,497.831,128.917,492.306,124.032z M460.455,161.685
				l-19.285-7.701c-3.563-1.408-7.595-0.832-10.624,1.579c-3.648,2.923-8.256,5.589-13.717,7.957
				c-3.392,1.472-5.781,4.587-6.315,8.256L407.613,192h-28.352l-2.88-20.245c-0.555-3.819-3.136-7.04-6.72-8.427
				c-4.565-1.749-9.045-4.352-13.675-7.915c-3.008-2.304-6.976-2.837-10.496-1.429l-19.051,7.701l-14.144-24.448l16.299-12.757
				c2.965-2.325,4.48-6.016,4.011-9.728c-0.341-2.645-0.491-5.291-0.491-8.085s0.149-5.44,0.469-8.085
				c0.469-3.733-1.045-7.424-4.011-9.728l-16.299-12.757l14.123-24.448l19.072,7.68c3.499,1.429,7.488,0.853,10.496-1.429
				c3.925-3.008,8.661-5.739,14.08-8.085c3.392-1.472,5.781-4.587,6.315-8.256l2.901-20.224h28.16l2.923,20.267
				c0.533,3.819,3.115,7.04,6.699,8.427c4.565,1.749,9.045,4.352,13.675,7.915c2.987,2.304,6.955,2.859,10.496,1.429l19.051-7.701
				l14.144,24.448l-16.299,12.757c-3.136,2.432-4.651,6.421-3.925,10.347c0.469,2.432,0.597,4.864,0.597,7.445
				c0,2.795-0.363,5.44-0.704,8.064c-0.469,3.733,1.067,7.445,4.032,9.749l16.448,12.757L460.455,161.685z"/>
		</g>
	</g>
</g>
</symbol>

<symbol id="ticher" viewBox="0 0 512 512">
<g>
	<g>
		<path d="M135,0c-33.358,0-60,28.006-60,61c0,33.084,26.916,60,60,60s60-26.916,60-60C195,27.98,168.324,0,135,0z M135,91
			c-16.542,0-30-13.458-30-30c0-16.804,13.738-31,30-31s30,14.196,30,31C165,77.542,151.542,91,135,91z"/>
	</g>
</g>
<g>
	<g>
		<path d="M467,0H255c-24.813,0-45,20.187-45,45v102.365l-13.183-13.182C188.317,125.682,177.017,121,165,121h-30
			c-6.359,0-53.641,0-60,0c-41.355,0-75,33.645-75,75c0,8.529,0,77.68,0,90c0,24.813,20.187,45,45,45c5.257,0,10.307-0.906,15-2.57
			V467c0,24.813,20.187,45,45,45c11.515,0,22.033-4.347,30-11.486c7.967,7.139,18.485,11.486,30,11.486c24.813,0,45-20.187,45-45
			V268.444c11.469,4.045,24.174,3.266,35.126-2.191L295.631,241H467c24.813,0,45-20.187,45-45V45C512,20.187,491.813,0,467,0z
			 M291.709,209.419l-59.982,29.991c-5.627,2.804-12.616,1.91-17.333-2.806l-8.786-8.787c-9.276-9.276-25.567-2.967-25.607,10.56
			c0,0.015-0.002,0.029-0.002,0.044V467c0,8.271-6.729,15-15,15s-15-6.729-15-15V316c0-8.284-6.716-15-15-15s-15,6.716-15,15v151
			c0,8.271-6.729,15-15,15s-15-6.729-15-15V286c0-11.31,0-80.756,0-90c0-8.284-6.716-15-15-15s-15,6.716-15,15c0,8.529,0,77.68,0,90
			c0,8.271-6.729,15-15,15c-8.271,0-15-6.729-15-15C30,274.69,30,205.244,30,196c0-24.813,20.187-45,45-45c11.31,0,80.756,0,90,0
			c4.004,0,7.77,1.561,10.604,4.396l44.707,44.707c4.564,4.565,11.54,5.696,17.314,2.81l40.669-20.335
			c7.444-3.725,16.415-0.714,20.124,6.712C302.128,196.711,299.13,205.709,291.709,209.419z M482,196c0,8.271-6.729,15-15,15
			H327.419c0.091-0.257,0.191-0.509,0.277-0.768c2.16-6.48,2.808-13.218,1.982-19.8l82.03-41.015
			c7.41-3.705,10.413-12.715,6.708-20.125c-3.705-7.41-12.716-10.414-20.125-6.708l-82.025,41.013
			c-13.142-12.712-33.613-16.747-51.393-7.849L240,168.185V45c0-8.271,6.729-15,15-15h212c8.271,0,15,6.729,15,15V196z"/>
	</g>
</g>
</symbol>

<symbol id="user" viewBox="0 0 512 512">
<path d="m437.019531 74.980469c-48.351562-48.351563-112.640625-74.980469-181.019531-74.980469-68.382812 0-132.667969 26.628906-181.019531 74.980469-48.351563 48.351562-74.980469 112.636719-74.980469 181.019531 0 68.378906 26.628906 132.667969 74.980469 181.019531 48.351562 48.351563 112.636719 74.980469 181.019531 74.980469 68.378906 0 132.667969-26.628906 181.019531-74.980469 48.351563-48.351562 74.980469-112.640625 74.980469-181.019531 0-68.382812-26.628906-132.667969-74.980469-181.019531zm-308.679687 367.40625c10.707031-61.648438 64.128906-107.121094 127.660156-107.121094 63.535156 0 116.953125 45.472656 127.660156 107.121094-36.347656 24.972656-80.324218 39.613281-127.660156 39.613281s-91.3125-14.640625-127.660156-39.613281zm46.261718-218.519531c0-44.886719 36.515626-81.398438 81.398438-81.398438s81.398438 36.515625 81.398438 81.398438c0 44.882812-36.515626 81.398437-81.398438 81.398437s-81.398438-36.515625-81.398438-81.398437zm235.042969 197.710937c-8.074219-28.699219-24.109375-54.738281-46.585937-75.078125-13.789063-12.480469-29.484375-22.328125-46.359375-29.269531 30.5-19.894531 50.703125-54.3125 50.703125-93.363281 0-61.425782-49.976563-111.398438-111.402344-111.398438s-111.398438 49.972656-111.398438 111.398438c0 39.050781 20.203126 73.46875 50.699219 93.363281-16.871093 6.941406-32.570312 16.785156-46.359375 29.265625-22.472656 20.339844-38.511718 46.378906-46.585937 75.078125-44.472657-41.300781-72.355469-100.238281-72.355469-165.574219 0-124.617188 101.382812-226 226-226s226 101.382812 226 226c0 65.339844-27.882812 124.277344-72.355469 165.578125zm0 0"/>
</symbol>

<symbol id="winner" viewBox="0 0 512.01 512.01">
<g><path d="m256.005 283.469-27.704 55.408-61.258 9.226 44.136 43.47-10.157 61.113 54.983-28.544 54.983 28.544-10.157-61.113 44.136-43.47-61.258-9.226zm15.552 114.946-15.552-8.074-15.552 8.074 2.872-17.286-12.483-12.296 17.326-2.61 7.837-15.673 7.837 15.673 17.326 2.61-12.483 12.296z"/><path d="m473.667 53.671-107.323-53.671-110.339 223.166-110.339-223.166-107.323 53.671 115.976 234.64c-20.734 23.74-33.314 54.776-33.314 88.698 0 74.439 60.561 135 135 135s135-60.561 135-135c0-33.922-12.58-64.958-33.314-88.698zm-93.788-13.36 53.663 26.836-98.938 200.168c-16.183-11.628-35.03-19.767-55.436-23.31zm-247.748 0 100.711 203.694c-20.406 3.543-39.253 11.682-55.436 23.31l-98.938-200.168zm123.874 441.699c-57.897 0-105-47.103-105-105s47.103-105 105-105 105 47.103 105 105-47.103 105-105 105z"/></g>
</symbol>

</svg>